<mxfile host="app.diagrams.net" agent="Mozilla/5.0 (Macintosh; Intel Mac OS X 10_15_7) AppleWebKit/537.36 (KHTML, like Gecko) Chrome/126.0.0.0 Safari/537.36" version="24.7.7">
  <diagram name="ページ1" id="5wIpfVOD8ZaT3yq1tPsm">
    <mxGraphModel dx="1366" dy="1761" grid="1" gridSize="10" guides="1" tooltips="1" connect="1" arrows="1" fold="1" page="1" pageScale="1" pageWidth="1169" pageHeight="827" math="0" shadow="0">
      <root>
        <mxCell id="0" />
        <mxCell id="1" parent="0" />
        <mxCell id="PiB_E5LH4JP8B-9UBOU4-15" value="Kubernetes Cluster" style="rounded=1;whiteSpace=wrap;html=1;fillColor=#dae8fc;strokeColor=#6c8ebf;verticalAlign=top;" vertex="1" parent="1">
          <mxGeometry x="150" y="224" width="919" height="320" as="geometry" />
        </mxCell>
        <mxCell id="PiB_E5LH4JP8B-9UBOU4-1" value="&lt;div style=&quot;&quot;&gt;&lt;span style=&quot;background-color: initial;&quot;&gt;M1 Macbook Pro&lt;/span&gt;&lt;/div&gt;" style="rounded=0;whiteSpace=wrap;html=1;align=left;horizontal=1;verticalAlign=bottom;fillColor=none;" vertex="1" parent="1">
          <mxGeometry x="44" y="364" width="340" height="240" as="geometry" />
        </mxCell>
        <mxCell id="PiB_E5LH4JP8B-9UBOU4-2" value="&lt;div style=&quot;&quot;&gt;&lt;span style=&quot;background-color: initial;&quot;&gt;Intel NUC (Windows)&lt;/span&gt;&lt;/div&gt;" style="rounded=0;whiteSpace=wrap;html=1;align=left;horizontal=1;verticalAlign=bottom;fillColor=none;" vertex="1" parent="1">
          <mxGeometry x="414" y="364" width="340" height="240" as="geometry" />
        </mxCell>
        <mxCell id="PiB_E5LH4JP8B-9UBOU4-3" value="&lt;div style=&quot;&quot;&gt;&lt;span style=&quot;background-color: initial;&quot;&gt;Macbook Pro (Intel)&lt;/span&gt;&lt;/div&gt;" style="rounded=0;whiteSpace=wrap;html=1;align=left;horizontal=1;verticalAlign=bottom;fillColor=none;" vertex="1" parent="1">
          <mxGeometry x="784" y="364" width="340" height="240" as="geometry" />
        </mxCell>
        <mxCell id="PiB_E5LH4JP8B-9UBOU4-4" value="Multipass" style="rounded=0;whiteSpace=wrap;html=1;" vertex="1" parent="1">
          <mxGeometry x="119" y="554" width="190" height="20" as="geometry" />
        </mxCell>
        <mxCell id="PiB_E5LH4JP8B-9UBOU4-5" value="VirtualBox + Vagrant" style="rounded=0;whiteSpace=wrap;html=1;" vertex="1" parent="1">
          <mxGeometry x="489" y="554" width="190" height="20" as="geometry" />
        </mxCell>
        <mxCell id="PiB_E5LH4JP8B-9UBOU4-6" value="VirtualBox + Vagrant" style="rounded=0;whiteSpace=wrap;html=1;" vertex="1" parent="1">
          <mxGeometry x="859" y="554" width="190" height="20" as="geometry" />
        </mxCell>
        <mxCell id="PiB_E5LH4JP8B-9UBOU4-8" value="control-plane-1" style="rounded=0;whiteSpace=wrap;html=1;verticalAlign=top;fillColor=none;" vertex="1" parent="1">
          <mxGeometry x="454" y="396" width="70" height="140" as="geometry" />
        </mxCell>
        <mxCell id="PiB_E5LH4JP8B-9UBOU4-9" value="control-plane-2" style="rounded=0;whiteSpace=wrap;html=1;verticalAlign=top;fillColor=none;" vertex="1" parent="1">
          <mxGeometry x="549" y="396" width="70" height="140" as="geometry" />
        </mxCell>
        <mxCell id="PiB_E5LH4JP8B-9UBOU4-10" value="node-2" style="rounded=0;whiteSpace=wrap;html=1;verticalAlign=top;fillColor=none;" vertex="1" parent="1">
          <mxGeometry x="644" y="396" width="70" height="140" as="geometry" />
        </mxCell>
        <mxCell id="PiB_E5LH4JP8B-9UBOU4-11" value="node-1" style="rounded=0;whiteSpace=wrap;html=1;verticalAlign=top;fillColor=none;" vertex="1" parent="1">
          <mxGeometry x="179" y="396" width="70" height="140" as="geometry" />
        </mxCell>
        <mxCell id="PiB_E5LH4JP8B-9UBOU4-12" value="control-plane-3" style="rounded=0;whiteSpace=wrap;html=1;verticalAlign=top;fillColor=none;" vertex="1" parent="1">
          <mxGeometry x="869" y="396" width="70" height="140" as="geometry" />
        </mxCell>
        <mxCell id="PiB_E5LH4JP8B-9UBOU4-13" value="node-3" style="rounded=0;whiteSpace=wrap;html=1;verticalAlign=top;fillColor=none;" vertex="1" parent="1">
          <mxGeometry x="969" y="396" width="70" height="140" as="geometry" />
        </mxCell>
        <mxCell id="PiB_E5LH4JP8B-9UBOU4-14" value="Wi-Fi (192.168.xxx.xxx/xx)" style="rounded=0;whiteSpace=wrap;html=1;fillColor=#fff2cc;strokeColor=#d6b656;opacity=80;" vertex="1" parent="1">
          <mxGeometry x="64" y="464" width="1040" height="40" as="geometry" />
        </mxCell>
        <mxCell id="PiB_E5LH4JP8B-9UBOU4-16" value="192.168.xxx.xxx&lt;div&gt;(VIP)&lt;/div&gt;" style="text;html=1;align=center;verticalAlign=middle;whiteSpace=wrap;rounded=0;" vertex="1" parent="1">
          <mxGeometry x="834" y="254" width="110" height="30" as="geometry" />
        </mxCell>
        <mxCell id="PiB_E5LH4JP8B-9UBOU4-24" value="Ansible" style="rounded=1;whiteSpace=wrap;html=1;" vertex="1" parent="1">
          <mxGeometry x="64" y="384" width="76" height="46" as="geometry" />
        </mxCell>
        <mxCell id="PiB_E5LH4JP8B-9UBOU4-25" value="" style="edgeStyle=elbowEdgeStyle;elbow=vertical;endArrow=classic;html=1;curved=0;rounded=0;endSize=8;startSize=8;entryX=0.5;entryY=0;entryDx=0;entryDy=0;" edge="1" parent="1" source="PiB_E5LH4JP8B-9UBOU4-24" target="PiB_E5LH4JP8B-9UBOU4-3">
          <mxGeometry width="50" height="50" relative="1" as="geometry">
            <mxPoint x="489" y="350" as="sourcePoint" />
            <mxPoint x="539" y="300" as="targetPoint" />
            <Array as="points">
              <mxPoint x="530" y="340" />
            </Array>
          </mxGeometry>
        </mxCell>
        <mxCell id="PiB_E5LH4JP8B-9UBOU4-26" value="" style="edgeStyle=elbowEdgeStyle;elbow=vertical;endArrow=classic;html=1;curved=0;rounded=0;endSize=8;startSize=8;exitX=0.5;exitY=0;exitDx=0;exitDy=0;entryX=0.5;entryY=0;entryDx=0;entryDy=0;" edge="1" parent="1" source="PiB_E5LH4JP8B-9UBOU4-24" target="PiB_E5LH4JP8B-9UBOU4-2">
          <mxGeometry width="50" height="50" relative="1" as="geometry">
            <mxPoint x="150" y="350" as="sourcePoint" />
            <mxPoint x="200" y="300" as="targetPoint" />
            <Array as="points">
              <mxPoint x="350" y="340" />
            </Array>
          </mxGeometry>
        </mxCell>
      </root>
    </mxGraphModel>
  </diagram>
</mxfile>
